<svg xmlns="http://www.w3.org/2000/svg" width="27" height="42" viewBox="0 0 380 550">
  <defs><style>
    .c1, .c2, .c3 {fill-rule: evenodd;}
    .c2 {fill: red;}
    .c3 {fill: #00a519;}
  </style></defs>
  <path class="c1" d="M26.4,306.278l104.2-107.9a80,80,0,0,1,113.12-1.974l107.9,104.2a80,80,0,0,1,1.974,113.12l-104.2,107.9a80,80,0,0,1-113.12,1.974L28.378,419.4A80,80,0,0,1,26.4,306.278Z"/>
  <path class="c2" d="M139.057,520.72a76,76,0,0,0,107.464-1.876l104.2-107.9a76,76,0,0,0-1.876-107.464l-107.9-104.2a76,76,0,0,0-107.464,1.876l-104.2,107.9a76,76,0,0,0,1.876,107.464ZM29.28,309.057s51.07-52.164,105.38.282c40.1,38.728-2.514,99.054-2.514,99.054s-36.757,47.48-8.914,97.044l15.825,15.283s-52.164-51.07.282-105.38c38.728-40.1,99.054,2.514,99.054,2.514s47.48,36.757,97.044,8.914l15.283-15.825s-51.07,52.164-105.38-.282c-40.1-38.728,2.514-99.054,2.514-99.054s36.757-47.48,8.914-97.044L240.943,199.28s52.164,51.07-.282,105.38c-38.728,40.1-99.054-2.514-99.054-2.514s-47.48-36.757-97.044-8.914Z"/>
  <path class="c3" d="M22,4c0,55.979,33.01,166,165,166,24.969,0,110-17,110-110-100.01,0-110,97-110,102C187,120,160.979,4,22,4Z"/>
</svg>
